<?xml version="1.0" encoding="UTF-8" standalone="no"?>
<svg
   width="250"
   height="250"
   viewBox="0 0 250 250"
   version="1.1"
   id="svg838"
   sodipodi:docname="laraarmy.svg"
   inkscape:version="1.1 (c68e22c387, 2021-05-23)"
   xmlns:inkscape="http://www.inkscape.org/namespaces/inkscape"
   xmlns:sodipodi="http://sodipodi.sourceforge.net/DTD/sodipodi-0.dtd"
   xmlns="http://www.w3.org/2000/svg"
   xmlns:svg="http://www.w3.org/2000/svg"
   xmlns:rdf="http://www.w3.org/1999/02/22-rdf-syntax-ns#"
   xmlns:cc="http://creativecommons.org/ns#"
   xmlns:dc="http://purl.org/dc/elements/1.1/">
  <defs
     id="defs842" />
  <sodipodi:namedview
     id="namedview840"
     pagecolor="#505050"
     bordercolor="#eeeeee"
     borderopacity="1"
     inkscape:pageshadow="0"
     inkscape:pageopacity="0"
     inkscape:pagecheckerboard="0"
     showgrid="false"
     showguides="true"
     inkscape:guide-bbox="true"
     inkscape:snap-object-midpoints="true"
     inkscape:zoom="0.85668706"
     inkscape:cx="40.855058"
     inkscape:cy="52.527932"
     inkscape:window-width="1366"
     inkscape:window-height="715"
     inkscape:window-x="-8"
     inkscape:window-y="-8"
     inkscape:window-maximized="1"
     inkscape:current-layer="svg838"
     width="250px" />
  <title
     id="title834">Logomark</title>
  <rect
     style="opacity:1;fill:none;fill-opacity:1;stroke-width:30.0189;stroke-miterlimit:34.3"
     id="rect15936"
     width="250"
     height="250"
     x="-4.3474489e-07"
     y="0"
     inkscape:export-filename="C:\Users\zain\Desktop\laraarmy.png"
     inkscape:export-xdpi="5709.54"
     inkscape:export-ydpi="5709.54" />
  <g
     id="g16054"
     transform="matrix(14.520119,0,0,14.520119,-434.33681,-130.63691)">
    <path
       id="XMLID_490_"
       fill="#110b0c"
       d="m 36.072501,23.734678 c -2.408688,-1.550865 -3.843238,-4.187336 -3.843238,-7.05159 v -5.001541 l 0.906287,-0.05816 c 0.353791,-0.02423 0.66881,-0.256862 0.799664,-0.591268 l 0.237477,-0.620346 h 8.539452 l 0.237476,0.620346 c 0.130854,0.334406 0.441027,0.567035 0.799665,0.591268 l 0.906287,0.05816 v 5.001541 c 0,2.864254 -1.434551,5.500725 -3.843238,7.05159 l -2.369916,1.526633 z"
       style="stroke-width:0.0484645" />
    <path
       id="XMLID_487_"
       fill="#e5ae2b"
       d="m 36.334209,23.327576 c -2.26814,-1.463629 -3.620301,-3.945014 -3.620301,-6.644488 v -4.545974 l 0.45072,-0.02908 c 0.542803,-0.03392 1.022602,-0.387716 1.21646,-0.896594 l 0.121162,-0.310173 h 7.875487 l 0.121162,0.310173 c 0.198704,0.508878 0.673657,0.862669 1.21646,0.896594 l 0.45072,0.02908 v 4.545974 c 0,2.699474 -1.352161,5.180859 -3.620301,6.644488 l -2.108208,1.357007 z"
       style="stroke-width:0.0484645" />
    <path
       id="XMLID_486_"
       fill="#110b0c"
       d="m 36.595918,22.920474 c -2.127594,-1.371547 -3.397365,-3.702691 -3.397365,-6.237386 v -4.095254 c 0.751201,-0.04847 1.38124,-0.537956 1.638102,-1.206767 h 7.211523 c 0.256863,0.668811 0.891748,1.158302 1.638102,1.206767 v 4.095254 c 0,2.534695 -1.269771,4.865839 -3.397364,6.237386 l -1.846499,1.187381 z"
       style="stroke-width:0.0484645" />
    <path
       id="XMLID_483_"
       fill="#363928"
       d="M 36.726772,22.716923 C 34.667029,21.388994 33.43603,19.135393 33.43603,16.683088 v -3.877164 c 0.673657,-0.116315 1.255231,-0.557342 1.555711,-1.177688 h 6.891658 c 0.295634,0.620346 0.882055,1.061373 1.555712,1.177688 v 3.877164 c 0,2.452305 -1.231,4.705906 -3.290743,6.033835 l -1.710798,1.104991 z"
       style="stroke-width:0.0484645" />
    <path
       d="m 41.163206,16.199401 a 0.07421567,0.07421567 0 0 1 0.0028,0.01913 v 1.006544 a 0.07339006,0.07339006 0 0 1 -0.03688,0.06368 l -0.84492,0.486425 v 0.96407 c 0,0.02625 -0.01393,0.05045 -0.0367,0.06368 l -1.763472,1.015168 c -0.0039,0.0023 -0.0083,0.0036 -0.01272,0.0052 -0.0017,5.48e-4 -0.0031,0.0016 -0.0047,0.0021 a 0.07384873,0.07384873 0 0 1 -0.03761,0 c -0.0021,-5.55e-4 -0.0036,-0.0017 -0.0058,-0.0025 -0.0039,-0.0015 -0.0081,-0.0028 -0.01237,-0.0047 L 36.64761,18.803031 a 0.07348179,0.07348179 0 0 1 -0.03688,-0.06368 v -3.019636 c 0,-0.0066 9.6e-4,-0.01289 0.0028,-0.01936 5.5e-4,-0.0021 0.002,-0.0039 0.0028,-0.0061 0.0015,-0.0036 0.0028,-0.008 0.0047,-0.01132 0.0015,-0.0025 0.0035,-0.0044 0.005,-0.0066 0.0021,-0.0028 0.0039,-0.0058 0.0066,-0.0083 0.0021,-0.0021 0.0047,-0.0036 0.0073,-0.0053 0.0028,-0.0023 0.005,-0.0045 0.008,-0.0065 h 9.1e-5 l 0.881601,-0.507538 a 0.07357352,0.07357352 0 0 1 0.0734,0 l 0.881599,0.507585 h 1.81e-4 c 0.0028,0.002 0.0053,0.0043 0.008,0.0061 0.0025,0.002 0.005,0.0036 0.0071,0.0053 0.0028,0.0028 0.0045,0.0057 0.0066,0.0087 0.0016,0.0023 0.0036,0.0043 0.0047,0.0066 0.0021,0.0036 0.0035,0.0075 0.0047,0.01132 7.38e-4,0.0021 0.0021,0.0039 0.0028,0.0061 a 0.07421567,0.07421567 0 0 1 0.0028,0.01913 v 1.886171 l 0.734631,-0.423004 v -0.964161 c 0,-0.0065 9.64e-4,-0.01289 0.0028,-0.01913 6.4e-4,-0.0023 0.002,-0.0043 0.0028,-0.0061 0.0015,-0.0036 0.0028,-0.008 0.0047,-0.01133 0.0015,-0.0025 0.0035,-0.0044 0.0047,-0.0066 0.0023,-0.0028 0.0039,-0.0058 0.0066,-0.0083 0.0021,-0.0021 0.0047,-0.0036 0.0071,-0.0053 0.0028,-0.0023 0.005,-0.0045 0.008,-0.0065 h 9.5e-5 l 0.881688,-0.507584 a 0.07348179,0.07348179 0 0 1 0.0734,0 l 0.8816,0.507584 c 0.0031,0.002 0.0053,0.0043 0.0081,0.0061 0.0023,0.002 0.0047,0.0036 0.0071,0.0053 0.0028,0.0028 0.0045,0.0057 0.0066,0.0087 0.0017,0.0023 0.0036,0.0043 0.0047,0.0066 0.0021,0.0036 0.0035,0.0075 0.0047,0.01133 8.14e-4,0.0021 0.0021,0.0039 0.0028,0.0061 z m -0.144405,0.983242 v -0.837014 l -0.308513,0.1776 -0.426214,0.245398 v 0.837014 l 0.734818,-0.423003 z m -0.881597,1.51413 v -0.837565 l -0.419241,0.239436 -1.197176,0.68326 v 0.845453 z m -3.379611,-2.850104 v 2.850104 l 1.616228,0.930493 v -0.845269 l -0.844351,-0.477862 -2.74e-4,-1.84e-4 -3.62e-4,-1.82e-4 c -0.0028,-0.0017 -0.0052,-0.0039 -0.008,-0.0058 -0.0023,-0.002 -0.0047,-0.0035 -0.0071,-0.0052 l -1.83e-4,-2.77e-4 c -0.0025,-0.0023 -0.0039,-0.005 -0.0058,-0.0076 -0.002,-0.0025 -0.0039,-0.0045 -0.0053,-0.0071 l -9.3e-5,-2.75e-4 c -0.0017,-0.0028 -0.0028,-0.0058 -0.0036,-0.0091 -0.0011,-0.0028 -0.0028,-0.0052 -0.0036,-0.0081 v -9.1e-5 c -9.59e-4,-0.0036 -0.0011,-0.0071 -0.0015,-0.01063 -3.57e-4,-0.0028 -0.0011,-0.0053 -0.0011,-0.0081 v -1.84e-4 -1.970616 l -0.426207,-0.245731 -0.308514,-0.177416 z m 0.808207,-0.549875 -0.734543,0.422819 0.734358,0.422818 0.734452,-0.422909 -0.734452,-0.422728 z m 0.381993,2.638739 0.426121,-0.245306 v -1.843558 l -0.308514,0.1776 -0.426211,0.245401 v 1.843557 z m 2.262892,-2.139777 -0.73445,0.422819 0.73445,0.422816 0.734358,-0.422911 z m -0.07348,0.972876 -0.426212,-0.245398 -0.308512,-0.177599 v 0.837012 l 0.42612,0.24531 0.308604,0.177688 z m -1.689988,1.886215 1.077276,-0.615009 0.5385,-0.30732 -0.733903,-0.422544 -0.844993,0.486485 -0.770136,0.443367 z"
       fill="#ff2d20"
       fill-rule="evenodd"
       id="path836"
       style="stroke-width:0.0917378" />
    <path
       id="XMLID_398_"
       fill="#e5ae2b"
       d="m 43.715359,12.108035 c -0.542803,-0.03392 -1.022602,-0.387716 -1.21646,-0.896594 L 42.377737,10.901268 H 34.50225 l -0.121162,0.310173 c -0.198704,0.508878 -0.673657,0.862669 -1.21646,0.896594 l -0.45072,0.02908 v 4.545974 c 0,2.699474 1.352161,5.180859 3.620301,6.644488 l 2.108208,1.357007 2.108207,-1.357007 c 2.268141,-1.463629 3.620301,-3.945014 3.620301,-6.644488 v -4.545974 z m -0.02908,4.575053 c 0,2.534695 -1.269771,4.865839 -3.397364,6.237386 l -1.846499,1.187381 -1.846499,-1.187381 c -2.127594,-1.371547 -3.397365,-3.702691 -3.397365,-6.237386 v -4.095254 c 0.751201,-0.04847 1.38124,-0.537956 1.638102,-1.206767 h 7.211523 c 0.256863,0.668811 0.891748,1.158302 1.638102,1.206767 z"
       style="stroke-width:0.0484645" />
    <polygon
       id="XMLID_390_"
       fill="#e5ae2b"
       points="1159.5,203.6 1143,215.6 1149.3,234.9 1132.9,223 1116.4,234.9 1122.7,215.6 1106.3,203.6 1126.6,203.6 1132.9,184.3 1139.1,203.6 "
       transform="matrix(0.04846454,0,0,0.04846454,-16.335252,3.1905966)" />
    <g
       id="XMLID_517_"
       transform="matrix(0.04846454,0,0,0.04846454,-19.327315,2.9584537)">
      <polygon
         id="XMLID_519_"
         fill="#e5ae2b"
         points="1154,375.2 1154,361.6 1192,386 1230,361.6 1230,375.2 1192,399.7 " />
      <polygon
         id="XMLID_516_"
         fill="#e5ae2b"
         points="1154,356.1 1154,342.5 1192,367 1230,342.5 1230,356.1 1192,380.6 " />
    </g>
    <g
       id="XMLID_209_"
       transform="matrix(0.07896946,0,0,0.07896946,-58.443519,-45.776286)">
      <polygon
         id="XMLID_210_"
         fill="#e5ae2b"
         points="1269.4,751.9 1266.8,743.8 1264.1,751.9 1255.6,751.9 1262.5,756.9 1259.9,765 1266.8,760 1273.6,765 1271,756.9 1277.9,751.9 " />
    </g>
    <g
       id="XMLID_209_-1"
       transform="matrix(0.07896946,0,0,0.07896946,-64.616543,-45.807706)">
      <polygon
         id="XMLID_210_-0"
         fill="#e5ae2b"
         points="1266.8,743.8 1264.1,751.9 1255.6,751.9 1262.5,756.9 1259.9,765 1266.8,760 1273.6,765 1271,756.9 1277.9,751.9 1269.4,751.9 " />
    </g>
  </g>
  <metadata
     id="metadata16134">
    <rdf:RDF>
      <cc:Work
         rdf:about="">
        <dc:title>Logomark</dc:title>
      </cc:Work>
    </rdf:RDF>
  </metadata>
</svg>
